<mxfile host="Electron" agent="Mozilla/5.0 (Macintosh; Intel Mac OS X 10_15_7) AppleWebKit/537.36 (KHTML, like Gecko) draw.io/24.7.8 Chrome/128.0.6613.36 Electron/32.0.1 Safari/537.36" version="24.7.8">
  <diagram name="PÃ gina-1" id="T5KGFzQn10SXtiqap0zN">
    <mxGraphModel dx="2014" dy="1234" grid="1" gridSize="10" guides="1" tooltips="1" connect="1" arrows="1" fold="1" page="1" pageScale="1" pageWidth="594" pageHeight="394" math="0" shadow="0">
      <root>
        <mxCell id="0" />
        <mxCell id="1" parent="0" />
        <mxCell id="BpBN02d5tuOVc_7BYsZk-3" value="" style="group" vertex="1" connectable="0" parent="1">
          <mxGeometry x="40" y="30" width="70" height="80" as="geometry" />
        </mxCell>
        <mxCell id="BpBN02d5tuOVc_7BYsZk-1" value="" style="strokeWidth=3.937;html=1;shape=mxgraph.flowchart.database;whiteSpace=wrap;strokeColor=#3aac4d;" vertex="1" parent="BpBN02d5tuOVc_7BYsZk-3">
          <mxGeometry width="70" height="80" as="geometry" />
        </mxCell>
        <mxCell id="BpBN02d5tuOVc_7BYsZk-2" value="" style="shape=image;verticalLabelPosition=bottom;labelBackgroundColor=default;verticalAlign=top;aspect=fixed;imageAspect=0;image=data:image/png,iVBORw0KGgoAAAANSUhEUgAAAHwAAABwCAYAAADc3BTFAAABXWlDQ1BJQ0MgUHJvZmlsZQAAKJFtkD8sAwEUxn+lNJoGg4jBcAkxVdOcf11bg0gMVUTZrtdqJVWX64nYDIyiCYtNajGJiUXCaCMkBhGxirFhQc67Fq0/L3l5v3x578vLB3U+zTCybmAhZ5mxkYgSn5lVPI800kYTzQQ0PW+Eo9ExWeFr/qyXG1zOvO51vDb95/GSevV0EDo83Uh6u/7u/yhvMpXXZb5Jq7phWuAKCkeXLcPhVeE2U54S3nY4XeF9hxMVPinvTMaGhS+FW/WMlhR+EPYnavR0DS9kl/TPH5zvfanc1ITMdulOIqTIMY7CCNOoDDHIgGT0/01/+WaYRQxWMJknTQZLrsOiGGTFTWFUHHUC+IVVgtIDTta/M6xqi0UIPUN9oaolduB4HTpuq1r3LrSswdGFoZnad7KuF3d+rk+tsC8CDfe2XeoBzxa8F2z7tWjb73vifwdnuQ8yAmT1jE02JwAAAFZlWElmTU0AKgAAAAgAAYdpAAQAAAABAAAAGgAAAAAAA5KGAAcAAAASAAAARKACAAQAAAABAAAAfKADAAQAAAABAAAAcAAAAABBU0NJSQAAAFNjcmVlbnNob3QJlSgVAAAB1mlUWHRYTUw6Y29tLmFkb2JlLnhtcAAAAAAAPHg6eG1wbWV0YSB4bWxuczp4PSJhZG9iZTpuczptZXRhLyIgeDp4bXB0az0iWE1QIENvcmUgNi4wLjAiPgogICA8cmRmOlJERiB4bWxuczpyZGY9Imh0dHA6Ly93d3cudzMub3JnLzE5OTkvMDIvMjItcmRmLXN5bnRheC1ucyMiPgogICAgICA8cmRmOkRlc2NyaXB0aW9uIHJkZjphYm91dD0iIgogICAgICAgICAgICB4bWxuczpleGlmPSJodHRwOi8vbnMuYWRvYmUuY29tL2V4aWYvMS4wLyI+CiAgICAgICAgIDxleGlmOlBpeGVsWURpbWVuc2lvbj4xMTI8L2V4aWY6UGl4ZWxZRGltZW5zaW9uPgogICAgICAgICA8ZXhpZjpQaXhlbFhEaW1lbnNpb24+MTI0PC9leGlmOlBpeGVsWERpbWVuc2lvbj4KICAgICAgICAgPGV4aWY6VXNlckNvbW1lbnQ+U2NyZWVuc2hvdDwvZXhpZjpVc2VyQ29tbWVudD4KICAgICAgPC9yZGY6RGVzY3JpcHRpb24+CiAgIDwvcmRmOlJERj4KPC94OnhtcG1ldGE+CnXd6dsAAAuCSURBVHgB7Z17cFXFHccXRzOjibZkkEQEhiZBEwsJMomaIMhoDSNTfFXF0dQRHQWDT0SI2JZIx5QCQywVmY4jdihYHV9VeYxBKyMmUZKpedBJUBIZiJBEJ7ElaWfiH3a/cQ49c7n3nnP2dX577/39c+7j7O5vf5+zu7/ds48x33NhKUkaC5yRNDlNZXTUAingSfYgnJkI+T0ydJwdHeplDb2fsePDfax3qH80W939B+Nm77z089m49CyWnpbOLh6bwyZmXMAmZ2SzOdkz44az+c8xNrbhrQOfs/q+z1hTbxs71NfORr77j3IGWWOnsBlZ09kVWZey2dmXsh+nnas8jTAitAb4u0c/YnuPfcwOcsD/Hv7auK2mT7yclWQXsjty51sNnzRwVNUvdLzGGo99EgrkWE8V4N+cO48tmDwn1i1kfycJ/KPef7CXOt5g7T2fkjUcFIMPcEvBjVaVelLAAfq51m3My9mi9hSknXUOuz7/BrbkktvIV/ckgKPqXlG/zjrQkQ8ewFcWL2EVefMj/yLzPVTg346cZOtbt7L3Ot8lYxAVisDDX1lcSbJ7FxpwVN/VDetJOWMqYLvjmJe/gD1RdA+paj4U4E81/SHhSrUbtPszHLvauU+zosyL3D+H9tkocLTVS/f9hvUNHgktw2ElfE/xfayyYGFYyZ9K1xhwVOFV+6q1jIqdyg3xD2U5V7M1JQ+FWsUbAb798G72bONG4jjMqAeHbkd5bWjQtQNf2/Iie739r2asaUkqYULXCvzh+hrW0P13SzCYVRN99i3lG4w7c9reh6dgx3+A8IbvgbrlDG/+TIoW4KjGUyXbGyOgr2pYxzAAZUqUA4eDlmqz/eNDF/XOuseMQVcKHF2vlDfuH7ZzJ6A/Vr/W+ar1qgw4BlXQz06JmAXwKhhNoW5RBhwjaDqmGqk0wBQiw5ux8oSmELWkTlECHE+mDcOlm+ZW67SlkrhRS+p04qSB44m0wUm7peBWNiF9PCvPvU4JGF2RoJbU2Z5LA8crTupSOnk2W1r4y1E1nyx+gJ1NfAYq2nNM2tQhUsBRlYcxgzSIIVCi/3jVanZu2jmjwXBdxicnUJffNWzQUrULA4dX/k7n26TtBtg1ZY+fpuNNudeyp8pWnvY7pR9QtWM2kGoRBr6x9c+kvfJYsB0DAjradcqCqV8oWCpFCDiUoDx0Op2vFIlWsiMNV1W8mLwTh4KlUoSAq1ZCZYbG8fVhm6562neUeDDg1FEVFCyVpTwwcOql+7dlK045aH4h1pQ+wfCgUBWVBSwwcJWJqzbwoqK7WQlfABhU4Lk/yycaUhWVpTwQcIwAUW27UULvyr9ZmFk+Xy6MB4aqvHJ4jxLVAgF/uWu3kkR1RLK48K7AVXmkHksLKxjV8fa67vcj1RX6Hgj4rq69QonoDgSvHN0sFbKSj8RRFAxwqRh98w0cU3GoviCpKBCvyiPhwgfAA0RRsD5eVnwD33N0v2xaWsKj7b5mYqnSuCt580BRmvk6eVnxDXx/T6NsWlrC31HwC+XxUi3lGG6VrdZ9AUffm2p1flNOuXLgiFBlM6FSwU/43jYy4gv4x70tMmloC4sRMuctmOpE0ExQHIxp4XvcyIgv4B2DX8ikoS3s1RPLtMWNiOdOulJr/CKRo6aVmRHjC7jsUyWSMT9hLs8u8nOb8D03KurqCSsQI2DbgHgB9AWcYvuN6hZTlnQKRt8oVuvYgFBUPIHrnkUpqvjMrBmiQQOFo1itHxrsDpQH982ewP81MuS+n8zn/MxcI7pgMz5q0s+3FxUVT+D/lGgvRJXyE65grBngl43X6yf4yWvkPTJNrCfwk98RLeGGgKPbR7Edj3wI/H73BP7FwJd+4zJ6n67+d7RMXMB3WKYmor6VJ3BqGYU+pueVZ6RlUDSDkE5WAs/LzBPKrGigfEPNh6h+QcJ5Au+R6AIEUSR1rxkLeAKnviLUjJkSJxVP4ImTVcY6eW3VJPnywXZ7JBXwkyPDtvOS1t8TeM74adKJqI6gXWIsWUSXr4bER7ZE0tMZxhO4zsRtifvEcK8tqnrqaS1wk23xCX5EVqKIJ/DsDL2vIEUN2THYJRS0RwDeN0MnhNLSGagwc6pQ9J7AJ/CD3ChKU1+rkFo4yC6ImKxJgugleo6aJ3Cc1kdRWgzNszsg+GDptBk25xUVT+A4mpGi/Jevc/sg4NRpEXgfHmsgl/30s8TH9j2BUz6H84OjemEcH+5nRwxvfuvn6ZopsELWidcTOG7EuR0Upa5rDzs5Euzc0SCDL+8TLN3g8FNBhw1hfQGfJvFEIRGdsq3zzUDRHxo87Pv+l/npiBRlusTbQl/ALzM0YVDEuK9wKEFLuZ903uIrZSl2x1DbTsmY4CcLUe/xBfzKbDMzRKNq6PEjnLfNbX/xuCv4339q2xY8kIEQsrWtL+B4oqi247Dx6/wEYrwJUyVUSzfyd63kahhfwJFQ6aQrcCErv+I7F6oQNA8bm59XEZWWOHB4vYz4Bn4b8U1p0X3a3LY9ri0wanh4IL7TtqpxPUMzQVFwbrnoCJuTH9/AcZQi5WodGXqJb2IXbzCmgC9eiAdzW+ffWCPRjQ+Qv2smzcJFSnwDRyrlOT+TSsxE4Gp+LHWs9hxrxWLNeEWYTU3PmVBRKA0ce/VzBRsIBgJ+e951QsqaDIQS/Oi+1TG7arOjOD2AfV/d6ZvwmtTbK61i7kPJVudIIxBweOtoR6gL+s+L9i6PCv3Boh/2TXfy4MCOV9U794Z5XVZ0t5LkAwFHios07KmiJCcRkcCJA3SMh7vFvcTYFtiYZiYz2OLOf2DgeJlCcZ6bO1POZ0BfuHNx1DYdfe2KnffHdeKceMK+PlikblepwMCReZUK6DYmqmqAdXvv6Gs/0/B73UkriR+FS+UbSyHgNpVyx+qdA/+fEtUpOD3KicvkVXXhEgKODKtWRLcRm10zV0QmQujWL1r8cJBVlm6kIQwciuDEexvFhnnm6HevLlmq3LzCwKHJmpKHGBSzQdyLF2yYZ359/g3KPHM3HyngGAh4smy5Oz4rPrvhU1QYkxSrZtyrRTUp4NBoweQ5VgzGQFf0u3VMlkDcqgQ1Zg0/xkOXSAOHYrWzqsi/WIGeB/ra2FvddfhIViqK7mR4UaVLxnzPRUXk2E/93l30T/xTkVddccAJ3jRrla7oR+NVUsIRE57KR0uXaVU2kSNHuw0nWLcoAw5FK/Lms3n5C3TrnHDxo93ePHeNkrdhXsZRChyJPVPyiLX9cy9j6fgfsLeUb9DSBYumr3LgSATtkK2DMtGMpOs3B7ZOJy1Sdy3AkQjaI1veqkUaxcT3MGAjX8q89FhGeri+huzhdrF01v17WLCRL20l3DFaqnp3LPHDNUzY0EB7CXey+3zHq2xr8wvO16S8ouu1o7zWiDcey8DGgEMBbAhbta+a9EHzsQwl+zucWPg1KiYiyuhiFDgUxQEt93/4a9bdf1BGb2vCogqvLF4yOkZBQWnjwJ1Mo4rf3rojoUs7einrZq0w1sd2bBvvGhpwKIUD8FbwhQOJVtpRqvESpLJgYTzbh/JfqMCdHON4xdrmLQwn6NouVNrqWHYkAdxRbm3Li+ydzretrOYBGosFVM0fd2yi+koKODIHp24nX9C3lS/yt6HE2wLaeXDIAXcUwxVV/Ztd77H2nk/dP4f+GatosbASa+2ol+hIY5EG7igL5273sf1sF18tInOEkxOfyBWOGBb0YQcGTOuyVawA7jYu4OO04wN9Lewg3+xeZ7WPbhX2RCvjuy6onh/uzpPJz9YBjzQOHoB2vqsDDtTDEY3DfBP8oN08VNHj+O4QUzN/wi7kO09OGzs1YQBH2st64JEZcn+HAxjrJN4f8aOpTL6HdusV5ueEBh6mYammrf31KNWMJ6teKeBJRj4FPAU8ySyQZNlNlfAkA/4/mjj0BfyIW6YAAAAASUVORK5CYII=;" vertex="1" parent="BpBN02d5tuOVc_7BYsZk-3">
          <mxGeometry x="11.75" y="30" width="46.5" height="42" as="geometry" />
        </mxCell>
        <mxCell id="BpBN02d5tuOVc_7BYsZk-10" value="results" style="rounded=1;whiteSpace=wrap;html=1;fontSize=20;fontFamily=Fire Sans;strokeColor=#3aac4d;strokeWidth=5.1181;" vertex="1" parent="1">
          <mxGeometry x="520" y="70" width="120" height="40" as="geometry" />
        </mxCell>
        <mxCell id="BpBN02d5tuOVc_7BYsZk-4" value="patients" style="rounded=1;whiteSpace=wrap;html=1;fontSize=20;fontFamily=Fire Sans;strokeColor=#3aac4d;strokeWidth=5.1181;rotation=90;" vertex="1" parent="1">
          <mxGeometry x="362" y="40" width="120" height="40" as="geometry" />
        </mxCell>
        <mxCell id="BpBN02d5tuOVc_7BYsZk-5" value="demographics" style="rounded=1;whiteSpace=wrap;html=1;fontSize=20;fontFamily=Fire Sans;strokeColor=#3aac4d;strokeWidth=5.1181;rotation=90;" vertex="1" parent="1">
          <mxGeometry x="312" y="40" width="120" height="40" as="geometry" />
        </mxCell>
        <mxCell id="BpBN02d5tuOVc_7BYsZk-6" value="diagnosis" style="rounded=1;whiteSpace=wrap;html=1;fontSize=20;fontFamily=Fire Sans;strokeColor=#3aac4d;strokeWidth=5.1181;rotation=90;" vertex="1" parent="1">
          <mxGeometry x="262" y="40" width="120" height="40" as="geometry" />
        </mxCell>
        <mxCell id="BpBN02d5tuOVc_7BYsZk-7" value="expositions" style="rounded=1;whiteSpace=wrap;html=1;fontSize=20;fontFamily=Fire Sans;strokeColor=#3aac4d;strokeWidth=5.1181;rotation=90;" vertex="1" parent="1">
          <mxGeometry x="212" y="40" width="120" height="40" as="geometry" />
        </mxCell>
        <mxCell id="BpBN02d5tuOVc_7BYsZk-8" value="bmi" style="rounded=1;whiteSpace=wrap;html=1;fontSize=20;fontFamily=Fire Sans;strokeColor=#3aac4d;strokeWidth=5.1181;rotation=90;" vertex="1" parent="1">
          <mxGeometry x="163" y="40" width="120" height="40" as="geometry" />
        </mxCell>
        <mxCell id="BpBN02d5tuOVc_7BYsZk-9" value="cancers" style="rounded=1;whiteSpace=wrap;html=1;fontSize=20;fontFamily=Fire Sans;strokeColor=#3aac4d;strokeWidth=5.1181;rotation=90;" vertex="1" parent="1">
          <mxGeometry x="110" y="40" width="120" height="40" as="geometry" />
        </mxCell>
        <mxCell id="BpBN02d5tuOVc_7BYsZk-175" style="edgeStyle=orthogonalEdgeStyle;rounded=0;orthogonalLoop=1;jettySize=auto;html=1;strokeWidth=3.1496;dashed=1;entryX=0.5;entryY=0;entryDx=0;entryDy=0;entryPerimeter=0;endArrow=none;endFill=0;" edge="1" parent="1" source="BpBN02d5tuOVc_7BYsZk-176" target="BpBN02d5tuOVc_7BYsZk-178">
          <mxGeometry relative="1" as="geometry">
            <Array as="points">
              <mxPoint x="287" y="360" />
              <mxPoint x="287" y="360" />
            </Array>
          </mxGeometry>
        </mxCell>
        <mxCell id="BpBN02d5tuOVc_7BYsZk-290" style="edgeStyle=orthogonalEdgeStyle;rounded=0;orthogonalLoop=1;jettySize=auto;html=1;strokeWidth=3.1496;strokeColor=#3aad4e;" edge="1" parent="1" target="BpBN02d5tuOVc_7BYsZk-10">
          <mxGeometry relative="1" as="geometry">
            <mxPoint x="420" y="210" as="sourcePoint" />
            <Array as="points">
              <mxPoint x="470" y="210" />
              <mxPoint x="470" y="90" />
            </Array>
          </mxGeometry>
        </mxCell>
        <mxCell id="BpBN02d5tuOVc_7BYsZk-291" style="edgeStyle=orthogonalEdgeStyle;rounded=0;orthogonalLoop=1;jettySize=auto;html=1;strokeWidth=3.1496;exitX=0.5;exitY=1;exitDx=0;exitDy=0;exitPerimeter=0;" edge="1" parent="1" source="BpBN02d5tuOVc_7BYsZk-176">
          <mxGeometry relative="1" as="geometry">
            <mxPoint x="440" y="522" as="targetPoint" />
            <Array as="points">
              <mxPoint x="287" y="260" />
              <mxPoint x="681" y="260" />
              <mxPoint x="681" y="522" />
            </Array>
          </mxGeometry>
        </mxCell>
        <mxCell id="BpBN02d5tuOVc_7BYsZk-176" value="&lt;font style=&quot;font-size: 20px;&quot; face=&quot;Fire Sans&quot;&gt;&amp;nbsp;PYTHON&lt;/font&gt;&lt;div style=&quot;font-size: 20px;&quot;&gt;&lt;font style=&quot;font-size: 20px;&quot; face=&quot;R2OZ1WQi5-cfGk8glMUk&quot;&gt;&amp;nbsp;APP&lt;/font&gt;&lt;/div&gt;" style="outlineConnect=0;dashed=0;verticalLabelPosition=middle;verticalAlign=middle;align=left;html=1;shape=mxgraph.aws3.android;fillColor=#ffd949;gradientColor=none;strokeColor=#386f9e;strokeWidth=3.1496;rotation=0;labelPosition=right;" vertex="1" parent="1">
          <mxGeometry x="250" y="170" width="73.5" height="84" as="geometry" />
        </mxCell>
        <mxCell id="BpBN02d5tuOVc_7BYsZk-177" style="edgeStyle=orthogonalEdgeStyle;rounded=0;orthogonalLoop=1;jettySize=auto;html=1;strokeWidth=3.1496;entryX=0;entryY=0.5;entryDx=0;entryDy=0;entryPerimeter=0;exitX=0;exitY=0.5;exitDx=0;exitDy=0;exitPerimeter=0;" edge="1" parent="1" source="BpBN02d5tuOVc_7BYsZk-178" target="BpBN02d5tuOVc_7BYsZk-176">
          <mxGeometry relative="1" as="geometry">
            <mxPoint x="275" y="560" as="sourcePoint" />
            <mxPoint x="-52.25" y="428" as="targetPoint" />
            <Array as="points">
              <mxPoint x="-150" y="522" />
              <mxPoint x="-150" y="212" />
            </Array>
          </mxGeometry>
        </mxCell>
        <mxCell id="BpBN02d5tuOVc_7BYsZk-178" value="&lt;font face=&quot;Fire Sans&quot;&gt;&lt;span style=&quot;font-size: 20px;&quot;&gt;&amp;nbsp; R SCRIPT&lt;br&gt;&lt;/span&gt;&lt;/font&gt;&lt;div&gt;&lt;span style=&quot;background-color: initial; font-size: 20px;&quot;&gt;&lt;font face=&quot;Fire Sans&quot;&gt;&amp;nbsp; CoxPH&lt;/font&gt;&lt;/span&gt;&lt;font face=&quot;Fire Sans&quot;&gt;&lt;span style=&quot;font-size: 20px;&quot;&gt;&amp;nbsp;&lt;/span&gt;&lt;/font&gt;&lt;/div&gt;" style="outlineConnect=0;dashed=0;verticalLabelPosition=middle;verticalAlign=middle;align=left;html=1;shape=mxgraph.aws3.android;fillColor=#ffd949;gradientColor=none;strokeColor=#386f9e;strokeWidth=3.1496;rotation=0;labelPosition=right;" vertex="1" parent="1">
          <mxGeometry x="250" y="480" width="73.5" height="84" as="geometry" />
        </mxCell>
        <mxCell id="BpBN02d5tuOVc_7BYsZk-204" value="subprocess" style="text;html=1;align=center;verticalAlign=middle;whiteSpace=wrap;rounded=0;fontFamily=Fire Sans;fontSize=18;rotation=-90;" vertex="1" parent="1">
          <mxGeometry x="243" y="365" width="109" height="30" as="geometry" />
        </mxCell>
        <mxCell id="BpBN02d5tuOVc_7BYsZk-205" value="" style="strokeWidth=3.937;html=1;shape=mxgraph.flowchart.document2;whiteSpace=wrap;size=0.25;fillColor=none;strokeColor=#9673a6;" vertex="1" parent="1">
          <mxGeometry x="-279" y="280" width="491" height="190" as="geometry" />
        </mxCell>
        <mxCell id="BpBN02d5tuOVc_7BYsZk-206" value="2.5" style="rounded=0;whiteSpace=wrap;html=1;fontSize=16;strokeWidth=3.1496;fillColor=none;strokeColor=#9673a6;" vertex="1" parent="1">
          <mxGeometry x="-58" y="310" width="92" height="30" as="geometry" />
        </mxCell>
        <mxCell id="BpBN02d5tuOVc_7BYsZk-207" value="category" style="rounded=0;whiteSpace=wrap;html=1;fontSize=16;strokeWidth=3.1496;fillColor=#e1d5e7;strokeColor=#9673a6;" vertex="1" parent="1">
          <mxGeometry x="-279" y="280" width="129" height="30" as="geometry" />
        </mxCell>
        <mxCell id="BpBN02d5tuOVc_7BYsZk-208" value="HR" style="rounded=0;whiteSpace=wrap;html=1;fontSize=16;strokeWidth=3.1496;fillColor=#e1d5e7;strokeColor=#9673a6;" vertex="1" parent="1">
          <mxGeometry x="-58" y="280" width="90" height="30" as="geometry" />
        </mxCell>
        <mxCell id="BpBN02d5tuOVc_7BYsZk-209" value="p-value" style="rounded=0;whiteSpace=wrap;html=1;fontSize=16;strokeWidth=3.1496;fillColor=#e1d5e7;strokeColor=#9673a6;" vertex="1" parent="1">
          <mxGeometry x="122" y="280" width="90" height="30" as="geometry" />
        </mxCell>
        <mxCell id="BpBN02d5tuOVc_7BYsZk-210" value="IC" style="rounded=0;whiteSpace=wrap;html=1;fontSize=16;strokeWidth=3.1496;fillColor=#e1d5e7;strokeColor=#9673a6;" vertex="1" parent="1">
          <mxGeometry x="32" y="280" width="90" height="30" as="geometry" />
        </mxCell>
        <mxCell id="BpBN02d5tuOVc_7BYsZk-211" value="age_group" style="rounded=0;whiteSpace=wrap;html=1;fontSize=16;strokeWidth=3.1496;fillColor=none;strokeColor=#9673a6;" vertex="1" parent="1">
          <mxGeometry x="-279" y="310" width="129" height="30" as="geometry" />
        </mxCell>
        <mxCell id="BpBN02d5tuOVc_7BYsZk-212" value="50-59" style="rounded=0;whiteSpace=wrap;html=1;fontSize=16;strokeWidth=3.1496;fillColor=none;strokeColor=#9673a6;" vertex="1" parent="1">
          <mxGeometry x="-149" y="310" width="90" height="30" as="geometry" />
        </mxCell>
        <mxCell id="BpBN02d5tuOVc_7BYsZk-213" value="0.001" style="rounded=0;whiteSpace=wrap;html=1;fontSize=16;strokeWidth=3.1496;fillColor=none;strokeColor=#9673a6;" vertex="1" parent="1">
          <mxGeometry x="120" y="310" width="90" height="30" as="geometry" />
        </mxCell>
        <mxCell id="BpBN02d5tuOVc_7BYsZk-214" value="1.2-2.9" style="rounded=0;whiteSpace=wrap;html=1;fontSize=16;strokeWidth=3.1496;fillColor=none;strokeColor=#9673a6;" vertex="1" parent="1">
          <mxGeometry x="34" y="310" width="86" height="30" as="geometry" />
        </mxCell>
        <mxCell id="BpBN02d5tuOVc_7BYsZk-215" value="value" style="rounded=0;whiteSpace=wrap;html=1;fontSize=16;strokeWidth=3.1496;fillColor=#e1d5e7;strokeColor=#9673a6;" vertex="1" parent="1">
          <mxGeometry x="-148" y="280" width="90" height="30" as="geometry" />
        </mxCell>
        <mxCell id="BpBN02d5tuOVc_7BYsZk-216" value="..." style="rounded=0;whiteSpace=wrap;html=1;fontSize=16;strokeWidth=3.1496;fillColor=none;strokeColor=#9673a6;" vertex="1" parent="1">
          <mxGeometry x="-57" y="350" width="92" height="30" as="geometry" />
        </mxCell>
        <mxCell id="BpBN02d5tuOVc_7BYsZk-217" value="..." style="rounded=0;whiteSpace=wrap;html=1;fontSize=16;strokeWidth=3.1496;fillColor=none;strokeColor=#9673a6;" vertex="1" parent="1">
          <mxGeometry x="-278" y="350" width="129" height="30" as="geometry" />
        </mxCell>
        <mxCell id="BpBN02d5tuOVc_7BYsZk-218" value="..." style="rounded=0;whiteSpace=wrap;html=1;fontSize=16;strokeWidth=3.1496;fillColor=none;strokeColor=#9673a6;" vertex="1" parent="1">
          <mxGeometry x="-148" y="350" width="90" height="30" as="geometry" />
        </mxCell>
        <mxCell id="BpBN02d5tuOVc_7BYsZk-219" value="..." style="rounded=0;whiteSpace=wrap;html=1;fontSize=16;strokeWidth=3.1496;fillColor=none;strokeColor=#9673a6;" vertex="1" parent="1">
          <mxGeometry x="124" y="350" width="86" height="30" as="geometry" />
        </mxCell>
        <mxCell id="BpBN02d5tuOVc_7BYsZk-220" value="..." style="rounded=0;whiteSpace=wrap;html=1;fontSize=16;strokeWidth=3.1496;fillColor=none;strokeColor=#9673a6;" vertex="1" parent="1">
          <mxGeometry x="34" y="350" width="90" height="30" as="geometry" />
        </mxCell>
        <mxCell id="BpBN02d5tuOVc_7BYsZk-222" value="TXT" style="rounded=0;whiteSpace=wrap;html=1;fontSize=16;strokeWidth=3.1496;fillColor=#e1d5e7;strokeColor=#9673a6;" vertex="1" parent="1">
          <mxGeometry x="-199" y="450" width="90" height="30" as="geometry" />
        </mxCell>
        <mxCell id="BpBN02d5tuOVc_7BYsZk-224" style="edgeStyle=orthogonalEdgeStyle;rounded=0;orthogonalLoop=1;jettySize=auto;html=1;entryX=0.5;entryY=0;entryDx=0;entryDy=0;entryPerimeter=0;strokeWidth=3.1496;strokeColor=#3aad4e;" edge="1" parent="1" source="BpBN02d5tuOVc_7BYsZk-9" target="BpBN02d5tuOVc_7BYsZk-176">
          <mxGeometry relative="1" as="geometry">
            <Array as="points">
              <mxPoint x="170" y="140" />
              <mxPoint x="287" y="140" />
            </Array>
          </mxGeometry>
        </mxCell>
        <mxCell id="BpBN02d5tuOVc_7BYsZk-225" style="edgeStyle=orthogonalEdgeStyle;rounded=0;orthogonalLoop=1;jettySize=auto;html=1;entryX=0.5;entryY=0;entryDx=0;entryDy=0;entryPerimeter=0;strokeWidth=3.1496;strokeColor=#3aad4e;" edge="1" parent="1" source="BpBN02d5tuOVc_7BYsZk-8" target="BpBN02d5tuOVc_7BYsZk-176">
          <mxGeometry relative="1" as="geometry">
            <Array as="points">
              <mxPoint x="222" y="140" />
              <mxPoint x="287" y="140" />
            </Array>
          </mxGeometry>
        </mxCell>
        <mxCell id="BpBN02d5tuOVc_7BYsZk-226" style="edgeStyle=orthogonalEdgeStyle;rounded=0;orthogonalLoop=1;jettySize=auto;html=1;entryX=0.5;entryY=0;entryDx=0;entryDy=0;entryPerimeter=0;strokeWidth=3.1496;strokeColor=#3aad4e;" edge="1" parent="1" source="BpBN02d5tuOVc_7BYsZk-7" target="BpBN02d5tuOVc_7BYsZk-176">
          <mxGeometry relative="1" as="geometry">
            <Array as="points">
              <mxPoint x="272" y="140" />
              <mxPoint x="287" y="140" />
            </Array>
          </mxGeometry>
        </mxCell>
        <mxCell id="BpBN02d5tuOVc_7BYsZk-227" style="edgeStyle=orthogonalEdgeStyle;rounded=0;orthogonalLoop=1;jettySize=auto;html=1;entryX=0.5;entryY=0;entryDx=0;entryDy=0;entryPerimeter=0;strokeWidth=3.1496;strokeColor=#3aad4e;" edge="1" parent="1" source="BpBN02d5tuOVc_7BYsZk-6" target="BpBN02d5tuOVc_7BYsZk-176">
          <mxGeometry relative="1" as="geometry">
            <Array as="points">
              <mxPoint x="322" y="140" />
              <mxPoint x="287" y="140" />
            </Array>
          </mxGeometry>
        </mxCell>
        <mxCell id="BpBN02d5tuOVc_7BYsZk-229" style="edgeStyle=orthogonalEdgeStyle;rounded=0;orthogonalLoop=1;jettySize=auto;html=1;entryX=0.5;entryY=0;entryDx=0;entryDy=0;entryPerimeter=0;strokeWidth=3.1496;strokeColor=#3aad4e;" edge="1" parent="1" source="BpBN02d5tuOVc_7BYsZk-4" target="BpBN02d5tuOVc_7BYsZk-176">
          <mxGeometry relative="1" as="geometry">
            <Array as="points">
              <mxPoint x="422" y="140" />
              <mxPoint x="287" y="140" />
            </Array>
          </mxGeometry>
        </mxCell>
        <mxCell id="BpBN02d5tuOVc_7BYsZk-230" style="edgeStyle=orthogonalEdgeStyle;rounded=0;orthogonalLoop=1;jettySize=auto;html=1;entryX=0.5;entryY=0;entryDx=0;entryDy=0;entryPerimeter=0;strokeWidth=3.1496;strokeColor=#3aad4e;" edge="1" parent="1" source="BpBN02d5tuOVc_7BYsZk-5" target="BpBN02d5tuOVc_7BYsZk-176">
          <mxGeometry relative="1" as="geometry">
            <Array as="points">
              <mxPoint x="372" y="140" />
              <mxPoint x="287" y="140" />
            </Array>
          </mxGeometry>
        </mxCell>
        <mxCell id="BpBN02d5tuOVc_7BYsZk-314" value="" style="group" vertex="1" connectable="0" parent="1">
          <mxGeometry x="440" y="280" width="482" height="200" as="geometry" />
        </mxCell>
        <mxCell id="BpBN02d5tuOVc_7BYsZk-315" value="" style="strokeWidth=3.937;html=1;shape=mxgraph.flowchart.document2;whiteSpace=wrap;size=0.25;fillColor=none;strokeColor=#6c8ebf;" vertex="1" parent="BpBN02d5tuOVc_7BYsZk-314">
          <mxGeometry width="482" height="190" as="geometry" />
        </mxCell>
        <mxCell id="BpBN02d5tuOVc_7BYsZk-316" value="id" style="rounded=0;whiteSpace=wrap;html=1;fontSize=16;strokeWidth=3.1496;fillColor=#dae8fc;strokeColor=#6c8ebf;" vertex="1" parent="BpBN02d5tuOVc_7BYsZk-314">
          <mxGeometry width="60" height="30" as="geometry" />
        </mxCell>
        <mxCell id="BpBN02d5tuOVc_7BYsZk-317" value="age_group" style="rounded=0;whiteSpace=wrap;html=1;fontSize=16;strokeWidth=3.1496;fillColor=#dae8fc;strokeColor=#6c8ebf;" vertex="1" parent="BpBN02d5tuOVc_7BYsZk-314">
          <mxGeometry x="60" width="92" height="30" as="geometry" />
        </mxCell>
        <mxCell id="BpBN02d5tuOVc_7BYsZk-318" value="diabetes" style="rounded=0;whiteSpace=wrap;html=1;fontSize=16;strokeWidth=3.1496;fillColor=#dae8fc;strokeColor=#6c8ebf;" vertex="1" parent="BpBN02d5tuOVc_7BYsZk-314">
          <mxGeometry x="151" width="70" height="30" as="geometry" />
        </mxCell>
        <mxCell id="BpBN02d5tuOVc_7BYsZk-319" value="..." style="rounded=0;whiteSpace=wrap;html=1;fontSize=16;strokeWidth=3.1496;fillColor=#dae8fc;strokeColor=#6c8ebf;" vertex="1" parent="BpBN02d5tuOVc_7BYsZk-314">
          <mxGeometry x="221" width="40" height="30" as="geometry" />
        </mxCell>
        <mxCell id="BpBN02d5tuOVc_7BYsZk-320" value="observed_years" style="rounded=0;whiteSpace=wrap;html=1;fontSize=16;strokeWidth=3.1496;fillColor=#dae8fc;strokeColor=#6c8ebf;" vertex="1" parent="BpBN02d5tuOVc_7BYsZk-314">
          <mxGeometry x="261" width="121" height="30" as="geometry" />
        </mxCell>
        <mxCell id="BpBN02d5tuOVc_7BYsZk-321" value="has_cancer" style="rounded=0;whiteSpace=wrap;html=1;fontSize=16;strokeWidth=3.1496;fillColor=#dae8fc;strokeColor=#6c8ebf;" vertex="1" parent="BpBN02d5tuOVc_7BYsZk-314">
          <mxGeometry x="382" width="100" height="30" as="geometry" />
        </mxCell>
        <mxCell id="BpBN02d5tuOVc_7BYsZk-322" value="1" style="rounded=0;whiteSpace=wrap;html=1;fontSize=16;strokeWidth=3.1496;fillColor=#f7f9fc;strokeColor=#6c8ebf;" vertex="1" parent="BpBN02d5tuOVc_7BYsZk-314">
          <mxGeometry y="30" width="60" height="30" as="geometry" />
        </mxCell>
        <mxCell id="BpBN02d5tuOVc_7BYsZk-323" value="0" style="rounded=0;whiteSpace=wrap;html=1;fontSize=16;strokeWidth=3.1496;fillColor=#f7f9fc;strokeColor=#6c8ebf;" vertex="1" parent="BpBN02d5tuOVc_7BYsZk-314">
          <mxGeometry x="60" y="30" width="92" height="30" as="geometry" />
        </mxCell>
        <mxCell id="BpBN02d5tuOVc_7BYsZk-324" value="0" style="rounded=0;whiteSpace=wrap;html=1;fontSize=16;strokeWidth=3.1496;fillColor=#f7f9fc;strokeColor=#6c8ebf;" vertex="1" parent="BpBN02d5tuOVc_7BYsZk-314">
          <mxGeometry x="151" y="30" width="70" height="30" as="geometry" />
        </mxCell>
        <mxCell id="BpBN02d5tuOVc_7BYsZk-325" value="..." style="rounded=0;whiteSpace=wrap;html=1;fontSize=16;strokeWidth=3.1496;fillColor=#f7f9fc;strokeColor=#6c8ebf;" vertex="1" parent="BpBN02d5tuOVc_7BYsZk-314">
          <mxGeometry x="221" y="30" width="40" height="30" as="geometry" />
        </mxCell>
        <mxCell id="BpBN02d5tuOVc_7BYsZk-326" value="3" style="rounded=0;whiteSpace=wrap;html=1;fontSize=16;strokeWidth=3.1496;fillColor=#f7f9fc;strokeColor=#6c8ebf;" vertex="1" parent="BpBN02d5tuOVc_7BYsZk-314">
          <mxGeometry x="261" y="30" width="121" height="30" as="geometry" />
        </mxCell>
        <mxCell id="BpBN02d5tuOVc_7BYsZk-327" value="0" style="rounded=0;whiteSpace=wrap;html=1;fontSize=16;strokeWidth=3.1496;fillColor=#f7f9fc;strokeColor=#6c8ebf;" vertex="1" parent="BpBN02d5tuOVc_7BYsZk-314">
          <mxGeometry x="382" y="30" width="100" height="30" as="geometry" />
        </mxCell>
        <mxCell id="BpBN02d5tuOVc_7BYsZk-328" value="..." style="rounded=0;whiteSpace=wrap;html=1;fontSize=16;strokeWidth=3.1496;fillColor=#f7f9fc;strokeColor=#6c8ebf;" vertex="1" parent="BpBN02d5tuOVc_7BYsZk-314">
          <mxGeometry y="70" width="60" height="30" as="geometry" />
        </mxCell>
        <mxCell id="BpBN02d5tuOVc_7BYsZk-329" value="..." style="rounded=0;whiteSpace=wrap;html=1;fontSize=16;strokeWidth=3.1496;fillColor=#f7f9fc;strokeColor=#6c8ebf;" vertex="1" parent="BpBN02d5tuOVc_7BYsZk-314">
          <mxGeometry x="60" y="70" width="92" height="30" as="geometry" />
        </mxCell>
        <mxCell id="BpBN02d5tuOVc_7BYsZk-330" value="..." style="rounded=0;whiteSpace=wrap;html=1;fontSize=16;strokeWidth=3.1496;fillColor=#f7f9fc;strokeColor=#6c8ebf;" vertex="1" parent="BpBN02d5tuOVc_7BYsZk-314">
          <mxGeometry x="151" y="70" width="70" height="30" as="geometry" />
        </mxCell>
        <mxCell id="BpBN02d5tuOVc_7BYsZk-331" value="..." style="rounded=0;whiteSpace=wrap;html=1;fontSize=16;strokeWidth=3.1496;fillColor=#f7f9fc;strokeColor=#6c8ebf;" vertex="1" parent="BpBN02d5tuOVc_7BYsZk-314">
          <mxGeometry x="221" y="70" width="40" height="30" as="geometry" />
        </mxCell>
        <mxCell id="BpBN02d5tuOVc_7BYsZk-332" value="..." style="rounded=0;whiteSpace=wrap;html=1;fontSize=16;strokeWidth=3.1496;fillColor=#f7f9fc;strokeColor=#6c8ebf;" vertex="1" parent="BpBN02d5tuOVc_7BYsZk-314">
          <mxGeometry x="261" y="70" width="121" height="30" as="geometry" />
        </mxCell>
        <mxCell id="BpBN02d5tuOVc_7BYsZk-333" value="..." style="rounded=0;whiteSpace=wrap;html=1;fontSize=16;strokeWidth=3.1496;fillColor=#f7f9fc;strokeColor=#6c8ebf;" vertex="1" parent="BpBN02d5tuOVc_7BYsZk-314">
          <mxGeometry x="382" y="70" width="100" height="30" as="geometry" />
        </mxCell>
        <mxCell id="BpBN02d5tuOVc_7BYsZk-334" value="164665" style="rounded=0;whiteSpace=wrap;html=1;fontSize=16;strokeWidth=3.1496;fillColor=#f7f9fc;strokeColor=#6c8ebf;" vertex="1" parent="BpBN02d5tuOVc_7BYsZk-314">
          <mxGeometry y="110" width="60" height="30" as="geometry" />
        </mxCell>
        <mxCell id="BpBN02d5tuOVc_7BYsZk-335" value="2" style="rounded=0;whiteSpace=wrap;html=1;fontSize=16;strokeWidth=3.1496;fillColor=#f7f9fc;strokeColor=#6c8ebf;" vertex="1" parent="BpBN02d5tuOVc_7BYsZk-314">
          <mxGeometry x="60" y="110" width="92" height="30" as="geometry" />
        </mxCell>
        <mxCell id="BpBN02d5tuOVc_7BYsZk-336" value="0" style="rounded=0;whiteSpace=wrap;html=1;fontSize=16;strokeWidth=3.1496;fillColor=#f7f9fc;strokeColor=#6c8ebf;" vertex="1" parent="BpBN02d5tuOVc_7BYsZk-314">
          <mxGeometry x="151" y="110" width="70" height="30" as="geometry" />
        </mxCell>
        <mxCell id="BpBN02d5tuOVc_7BYsZk-337" value="..." style="rounded=0;whiteSpace=wrap;html=1;fontSize=16;strokeWidth=3.1496;fillColor=#f7f9fc;strokeColor=#6c8ebf;" vertex="1" parent="BpBN02d5tuOVc_7BYsZk-314">
          <mxGeometry x="221" y="110" width="40" height="30" as="geometry" />
        </mxCell>
        <mxCell id="BpBN02d5tuOVc_7BYsZk-338" value="2" style="rounded=0;whiteSpace=wrap;html=1;fontSize=16;strokeWidth=3.1496;fillColor=#f7f9fc;strokeColor=#6c8ebf;" vertex="1" parent="BpBN02d5tuOVc_7BYsZk-314">
          <mxGeometry x="261" y="110" width="121" height="30" as="geometry" />
        </mxCell>
        <mxCell id="BpBN02d5tuOVc_7BYsZk-339" value="0" style="rounded=0;whiteSpace=wrap;html=1;fontSize=16;strokeWidth=3.1496;fillColor=#f7f9fc;strokeColor=#6c8ebf;" vertex="1" parent="BpBN02d5tuOVc_7BYsZk-314">
          <mxGeometry x="382" y="110" width="100" height="30" as="geometry" />
        </mxCell>
        <mxCell id="BpBN02d5tuOVc_7BYsZk-340" value="CSV" style="rounded=0;whiteSpace=wrap;html=1;fontSize=16;strokeWidth=3.1496;fillColor=#dae8fc;strokeColor=#6c8ebf;" vertex="1" parent="BpBN02d5tuOVc_7BYsZk-314">
          <mxGeometry x="69.25" y="170" width="92" height="30" as="geometry" />
        </mxCell>
      </root>
    </mxGraphModel>
  </diagram>
</mxfile>
